<svg xmlns="http://www.w3.org/2000/svg" width="90" height="1530"><defs><radialGradient id="a" cx="19%" cy="98%" r="108%" fx="19%" fy="98%"><stop offset="0%" stop-color="#09F"/><stop offset="61%" stop-color="#A033FF"/><stop offset="93%" stop-color="#FF5280"/><stop offset="100%" stop-color="#FF7061"/></radialGradient></defs><g fill="none" fill-rule="evenodd"><g fill="#FFF" fill-rule="nonzero"><path d="M43.1 1404.7c-3.7-.4-7.1-1.3-10-3.6l-1-.8c-1.3-1.3-1.4-2.6-.4-4 .8-1.3 2.3-1.6 3.8-1l.8.6a16.4 16.4 0 0 0 18.2.1 5 5 0 0 1 1.7-.9c1.3-.3 2.5.1 3.2 1.3.8 1.3.8 2.5-.2 3.5a14.7 14.7 0 0 1-5.3 3.5c-1.8.7-4 1-6 1.3l.7.7 8.3 8.4c1 1 1.2 2.1.7 3.2-.6 1.3-1.9 2-3.1 2a3 3 0 0 1-2-1l-6.3-6.4c-.6-.6-.9-.5-1.4 0l-6.4 6.5c-1 1-2.1 1.1-3.3.6-1.2-.6-2-1.8-1.9-3a3 3 0 0 1 1-2l8.3-8.3.6-.7Z"/><path d="M46 1395a12 12 0 1 1 .1-24 12 12 0 0 1-.2 24Zm5.9-12c0-3.3-2.6-5.9-5.9-5.9-3.3 0-5.9 2.7-5.9 6 0 3.2 2.7 5.8 6 5.8 3.2 0 5.8-2.7 5.8-6Z"/></g><path fill="#FFF" d="m18.6 1228.2 2.6-16.4 31.9-2.7 9.2 14.5-10.7 11.3-19.3 1.7z"/><path fill="#FFF" fill-rule="nonzero" d="M75 1306a6.6 6.6 0 0 0-6.8-6.4c-1.7.1-3.2.8-4.3 1.8a32.1 32.1 0 0 0-17.4-5.5l3-13.9 9.6 2a4.5 4.5 0 0 0 5 3.9 4.4 4.4 0 1 0-1-8.9c-1.5.2-2.7 1-3.4 2.2l-11-2.2c-.8-.1-1.5.3-1.7 1l-3.3 15.6c-6.3.1-12.4 2-17.6 5.5a6.6 6.6 0 0 0-9.3.3 6.5 6.5 0 0 0 2 10.4v2c0 10 11.9 18.2 26.4 18.2 14.6 0 26.3-8.1 26.3-18.2v-2c2.1-1 3.6-3.3 3.5-5.8Zm-45.2 4.5a4.5 4.5 0 0 1 9 0 4.5 4.5 0 0 1-9 0Zm26.2 12.3a17.1 17.1 0 0 1-11 3.5c-4 .1-8-1-11.2-3.5-.4-.5-.4-1.2.2-1.7.4-.3 1-.3 1.5 0 2.7 2 6 3 9.4 2.9 3.4.1 6.7-.8 9.5-2.8.5-.4 1.2-.4 1.8 0 .4.5.4 1.3 0 1.8v-.2H56Zm-.7-7.6c-2.5 0-4.5-2-4.5-4.5a4.5 4.5 0 0 1 9 0c0 2.5-1.8 4.6-4.4 4.6h-.2v-.1Z"/><g fill-rule="nonzero"><path fill="#FF9800" d="M75 1204.3c.2 3.3-.4 7.3-2.6 7.5-3.6.3-1.7-3.6-1.7-6 .2-6.9-5.8-11.6-11.6-11.6-1.7 0-5.5 1-5-2.4.3-1.5 1.6-1.5 3-1.6a15.3 15.3 0 0 1 17.8 14.1Z"/><path fill="#F44336" d="M60 1212.8c4.3 2.3 9.4 3.4 8.5 10-.2 1.7-1.2 3.8-2.2 5.2-7.2 9.7-29 13.8-42.7 6.4-4.5-2.5-9.3-6.1-8.5-13.3.6-6.2 5-11 9.2-15.2 4.1-3.9 8.4-7 14.3-8.3 6.3-1.6 8.2 3.5 6.5 8.5 3.6-.2 11.4-4.2 14.9-.3 1.5 1.7 1 4.7 0 7Zm-4.7 15.8a9.7 9.7 0 0 0 2.8-6.4c0-8.1-10.8-11.2-19.2-10.5-4.6.4-7.7 1.3-11 3.1-2.6 1.5-5.7 4-6.5 7.6-1.7 8.2 7.6 12 14.4 12.5 7.9.5 15.8-2.2 19.5-6.3Z"/><path fill="#FF9800" d="M67.6 1204.3c.4 2.5-.4 4.7-1.9 4.8-2.5.1-1.5-1.7-1.7-3.8 0-1.3-1.2-2.9-2.2-3.3-2-.9-5 .6-5-2 0-2 1.8-1.7 2.8-1.8a7.3 7.3 0 0 1 8 6.1Z"/><path fill="#212121" d="M47.3 1220.6c3.6 10.6-15.5 15.6-19 6.4-2.4-6 3.3-10.9 9.1-11.5 5-.5 8.8 2 9.9 5.1Zm-8.8 1.8c.7 1.3 2.5.4 2.4-.6-.2-1.2-2.5-1-2.4.6Zm-3.2 5.6c3.3-.7 3.7-6.5-1.2-5.4-4 1-3.3 6.5 1.2 5.4Z"/></g><path fill="#FFF" fill-rule="nonzero" d="M62 1102c-4-3.9-9.6-6-15.7-6-9.3 0-15 3.8-18.2 7-3.9 3.9-6.1 9-6.1 14.2 0 6.5 2.7 11.4 7.3 13.3l1 .1c.9 0 1.6-.6 1.9-1.6l.7-2.6c.3-1.2 0-1.8-.7-2.6a8.4 8.4 0 0 1-2-5.8c0-7 5.4-14.6 15.2-14.6 7.9 0 12.7 4.4 12.7 11.5 0 4.5-1 8.6-2.7 11.7-1.3 2-3.4 4.6-6.7 4.6-1.5 0-2.7-.6-3.6-1.6a4 4 0 0 1-.7-3.5l1.3-4.4c.9-2.7 1.6-5.3 1.6-7.3 0-3.5-2.1-5.8-5.3-5.8-4 0-7.3 4-7.3 9.3 0 2.6.7 4.5 1 5.2l-4.1 17.4c-.3 1.4-2.4 12.5 1 13.4 3.7 1 7-9.8 7.4-11l1.8-7.1c1.8 1.7 4.8 2.9 7.6 2.9 5.3 0 10.1-2.4 13.5-6.7 3.3-4.2 5.1-10 5.1-16.5 0-5-2.2-10-6-13.6ZM47.1 1049c-16.4 0-25.7-11.2-26.1-30h8.2c.3 13.8 6.4 19.6 11.1 20.8V1019h7.8v11.9c4.7-.5 9.7-6 11.4-11.9h7.7c-1.3 6.2-5 11.7-10.5 15 6 3 10.5 8.5 12.3 15h-8.5a14.8 14.8 0 0 0-12.4-10.7v10.7h-1ZM34.2 968.2a33.7 33.7 0 0 0 33.9-33.9v-1.5c2.3-1.7 4.3-3.8 5.9-6.2-2.1 1-4.4 1.6-6.8 1.9a12 12 0 0 0 5.2-6.6 23.7 23.7 0 0 1-7.6 2.9 11.9 11.9 0 0 0-20.3 10.8A33.8 33.8 0 0 1 20 923.2a12 12 0 0 0 3.7 15.9c-2 0-3.8-.6-5.4-1.5v.2a12 12 0 0 0 9.6 11.6 11.6 11.6 0 0 1-5.4.3c1.5 4.7 6 8.1 11.1 8.2a23.9 23.9 0 0 1-17.6 5 33.8 33.8 0 0 0 18.2 5.3M37 868.8v-17.2h-8v-9.3c8.7-2.3 12.4-9.8 12.8-16.3h9v14.8h10.6v10.8H51v15c0 4.4 2.2 6 5.8 6h5.1V884h-9.7c-8.7 0-15.2-4.5-15.2-15.2ZM74 758.1c-.2-.5-.6-.8-1-.8l-18.7-1.7-8.1-17.9c-.2-.4-.7-.7-1.1-.7-.5 0-1 .3-1.2.7l-8.3 17.5-18.5 2c-.5.1-.9.5-1 1-.2.4 0 .9.3 1.2l13.7 12.5-3.4 19c0 .4.1 1 .5 1.2a1.2 1.2 0 0 0 1.3 0l16.7-9.5 16.4 9.7c.4.1 1 0 1.3-.2.4-.3.6-.7.5-1.2l-2.5-14c.7-.3 2.6-1.2 3.6-2.3a17 17 0 0 1-4 1c-11 2.2-27.9.4-28.4.4l18.5-13.6a213.7 213.7 0 0 0-21.7-1.6c.7-.2 19.8-3.3 30.8-.2L41 773.7s14.4 1.4 19.5.8l-.3-2.6 13.5-12.6c.3-.3.4-.8.2-1.2ZM46 601.4l-5.1 5c-5 5-13.2 4.8-18-.6a12.3 12.3 0 0 1 1-17l9.4-9.4a13 13 0 0 1 15.2-2.3c1.4.8 2.5 1.7 3.3 2.7.8 1 .7 2.4 0 3.2l-.4.3c-1 1-2.6.8-3.5-.3-.4-.4-.7-.8-1.2-1a7.3 7.3 0 0 0-9.5.9l-9.9 9.8a7.1 7.1 0 0 0 .5 10.6c3 2.3 7.2 2 9.8-.7l4.7-4.7c.7-.7 1.6-1 2.4-.7h.2c1.8.4 2.5 2.8 1 4.2ZM67 564.2c-4.7-5.4-12.9-5.5-17.9-.7l-5 5c-1.5 1.5-.8 3.8 1.2 4.2h.1c1 .3 1.7 0 2.4-.6l4.7-4.8c2.7-2.6 6.9-3 9.8-.6a7.1 7.1 0 0 1 .5 10.5l-9.9 9.9a7.4 7.4 0 0 1-10.7-.2c-.9-1-2.5-1.1-3.5-.2l-.4.2c-1 1-1 2.3-.1 3.2.9 1 2 2 3.3 2.8a13 13 0 0 0 15.2-2.4l9.4-9.3a12.6 12.6 0 0 0 1-17ZM47.3 470c-8.5 0-15.5 3.8-20.5 10l2-1c.7-.4 1.5-.4 2.2-.3 3.6.7 5.5 6.5 4.2 12.9-2.4 12.2-12.4 14.1-13.4 2.8 0 3.9.6 7.7 2.6 11.7v-.1c.5 1.2-2.4 1.5-1.6 3.9l.1.4.7-.6c.7-.5 1.5.6.8 1l-.7.6c2 2.3 3.7 5.9 6.1 4 .3-.2 1-1.1 1.6-.6a25.1 25.1 0 0 0 30.3.8c.2-.2.7-.2 1 0 .2.3.7 1 1.9 1 .5 0 1-.1 1.4-.4l-.6-.5c-.6-.6.3-1.5 1-1l.5.6c1.1-1.7 5.5-4.2 3-6.5-.4-.4-1.1-.8-.7-1.5 2.9-5.1 3.7-11.1 2.7-16.7v.1c.8-.7 2.2-2 2.7-3.2.6-1.2.7-2.5-.8-2-1.2.5-2.1.8-3.2.5A25.3 25.3 0 0 0 47.3 470Zm-26.6 10.8a3 3 0 0 0-2.7 4.4 3 3 0 0 0-3 3 3 3 0 0 0 4.9 2.5 3 3 0 0 0 1-1.2c.4.9 1 1.6 1.9 2v1.6c.7 8.7 8.5 7.2 10.4-2.2 1.4-7.2-2.3-12.5-6.5-8.9-1.1 1-2.2 2.5-2.9 4.3-.3 0-.6-.3-.8-.4a3 3 0 0 0-2.3-5.1Zm7.1 3c2.5 0 3 3.9 2.5 6.6-1.2 6-6.1 7.1-6.7 1.6 1.5.6 3.2.4 4.3-1 .8-1.1.2-4.3-1-4.7-.9-.4-1.4 0-2.2 0 .7-1.1 1.8-2.4 3.1-2.4Z"/><path d="M19.2 1510 23 1497a25.6 25.6 0 1 1 22.2 12.8c-4.3 0-8.5-1-12.3-3.1l-13.6 3.6Z" fill="#FFF" fill-rule="nonzero"/><path d="M23.8 1484c0 4 1.1 8 3.3 11.3l.5.8-2.2 7.9 8-2.1.9.4a21.3 21.3 0 1 0-10.5-18.4Z" fill="#2FB943" fill-rule="nonzero"/><path d="M38.7 1474c-.5-1-1-1-1.4-1H36c-.4 0-1 0-1.7.7-.6.7-2.2 2.2-2.2 5.4 0 3.1 2.3 6.2 2.6 6.6.3.4 4.4 7.1 11 9.7 5.4 2.1 6.5 1.7 7.6 1.6 1.2-.1 3.8-1.6 4.4-3 .5-1.6.5-2.8.3-3.1-.1-.3-.6-.4-1.2-.8l-4.4-2c-.6-.3-1-.4-1.4.3l-2 2.5c-.4.4-.8.5-1.4.1-.7-.3-2.7-1-5.2-3.1a19.3 19.3 0 0 1-3.6-4.5c-.3-.6 0-1 .3-1.3l1-1.1.6-1c.2-.5.1-.9 0-1.2l-2-4.7" fill="#FFF"/><g fill="#FFF" fill-rule="nonzero"><path d="m28 397-6.2 15.5H27l.7-2h6l.7 2h5.3L33.6 397H28Zm1 9.7 1.8-4.8 1.8 4.8H29ZM61.3 406.6H68v-3.7h-6.7v-2.1h6.8V397H56.6v15.5h11.6v-3.8h-6.9zM46.3 407.2 42.6 397h-5.3l6.2 15.5h5.6l6.2-15.5H50zM15.5 405.3 9.8 397H5v15.5h5v-8.3l5.7 8.3h4.8V397h-5zM81.2 407.2l.5-.2c1.7-.8 2.6-2.4 2.6-4.5 0-2-.7-3.4-2-4.3A9 9 0 0 0 77 397h-6.3v15.5h4.7v-4.3h1.7l2.8 4.3h5l-3.8-5.3Zm-3.2-3h-2.6V401H78c.8 0 1.5.8 1.5 1.7 0 .9-.7 1.6-1.5 1.6Z"/></g><g fill-rule="nonzero"><path fill="#000" d="M45 287c-16.6 0-30 10.6-30 23.7 0 8.4 5.6 15.9 14 20-.4 1.6-2.9 10.2-3 11 0 0 0 .4.3.6.3.2.7 0 .7 0 1 0 11-7 12.7-8.3 1.7.2 3.5.4 5.3.4 16.6 0 30-10.6 30-23.7S61.6 287 45 287Z"/><path fill="#FFE812" d="M28.5 319c-1 0-1.7-.7-1.7-1.7V307h-2.7c-1 0-1.7-.8-1.7-1.7 0-1 .8-1.7 1.7-1.7H33c.9 0 1.6.7 1.6 1.7S34 307 33 307h-2.7v10.3c0 1-.8 1.7-1.8 1.7Zm15.2 0c-.8 0-1.3-.3-1.5-.8l-.8-2.3H36l-.8 2.3c-.2.5-.8.8-1.5.8-.4 0-.7-.1-1-.3-.5-.2-1-.8-.5-2.4l4.1-11c.3-.8 1.2-1.7 2.3-1.7 1.2 0 2 .9 2.3 1.7l4.2 11c.5 1.6 0 2.2-.4 2.4l-1.1.3Zm-3.2-6.1-1.8-5-1.7 5h3.5Zm7.4 5.8c-.9 0-1.6-.7-1.6-1.6v-11.8c0-1 .8-1.7 1.8-1.7s1.7.8 1.7 1.7v10.3h3.7c.9 0 1.6.7 1.6 1.5 0 1-.7 1.6-1.6 1.6h-5.6Zm9.6.3c-1 0-1.7-.8-1.7-1.8v-11.9c0-1 .8-1.7 1.7-1.7 1 0 1.8.8 1.8 1.7v3.8l4.8-4.9c.2-.3.6-.4 1-.4s.8.2 1.1.5c.3.3.5.7.5 1.1 0 .4 0 .8-.4 1l-3.9 4 4.3 5.7a1.7 1.7 0 0 1-.4 2.5c-.3.2-.6.3-1 .3-.6 0-1-.2-1.4-.7l-4-5.4-.6.6v3.8c0 1-.8 1.8-1.8 1.8Z"/></g><g fill-rule="nonzero"><path fill="#FFF" d="M75 220.4C75 207 61.5 196 45 196s-30 11-30 24.4c0 12 10.7 22.2 25 24 1 .3 2.4.7 2.7 1.6.3.7.2 2 .1 2.7l-.4 2.6c-.1.7-.6 3 2.6 1.6a96.9 96.9 0 0 0 23.6-17.5c4.3-4.8 6.4-9.6 6.4-15"/><path fill="#05C755" d="M65.5 228.2h-8.7a.6.6 0 0 1-.6-.5v-13.2c0-.3.3-.6.6-.6h8.7c.3 0 .5.3.5.6v2.1c0 .3-.2.6-.5.6h-6v2.2h6c.3 0 .5.3.5.6v2.1c0 .4-.2.6-.5.6h-6v2.2h6c.3 0 .5.3.5.6v2.2c0 .3-.2.5-.5.5M34.1 228.2c.3 0 .6-.2.6-.5v-2.2c0-.3-.3-.6-.6-.6h-5.9v-10.4c0-.3-.2-.6-.6-.6h-2.2c-.3 0-.5.3-.5.6v13.2c0 .3.2.5.5.5h8.7ZM38.6 214h-2.4c-.3 0-.6.2-.6.5v13.2c0 .3.3.5.6.5h2.4c.3 0 .6-.2.6-.5v-13.2c0-.3-.3-.6-.6-.6M53.8 214h-2.1c-.3 0-.6.2-.6.5v7.8l-6-8.1-.1-.1a.7.7 0 0 0-.2-.1H42.3c-.3 0-.5.2-.5.5v13.2c0 .3.2.5.5.5h2.2c.3 0 .6-.2.6-.5v-7.9l6 8.2.2.1a.4.4 0 0 0 .1.1H53.8c.3 0 .6-.2.6-.5v-13.2c0-.3-.3-.6-.6-.6"/></g><path fill="#FFF" fill-rule="nonzero" d="M30.6 121.8c-1.1-1-2.8-1-4 0l-10.8 10.9c-1 1-1 2.8 0 3.9l10.9 10.9a2.7 2.7 0 1 0 3.9-3.9l-9-9 9-9c1-1 1-2.7 0-3.8Zm43.6 10.9-10.9-10.9a2.7 2.7 0 1 0-3.9 3.9l9 9-9 8.9a2.7 2.7 0 0 0 4 3.9l10.8-11c1-1 1-2.7 0-3.8Zm-22.6-11.4c-1.3-.7-3-.1-3.6 1.2L37 144.3c-.7 1.4-.1 3 1.3 3.7 1.3.7 3 .1 3.6-1.3L53 125c.7-1.4.1-3-1.3-3.7ZM75 45.2A30.1 30.1 0 0 0 45 15c-16.6 0-30 13.5-30 30.2 0 15 11 27.6 25.3 29.8V53.9h-7.6v-8.7h7.6v-6.7c0-7.5 4.5-11.7 11.3-11.7 3.3 0 6.7.6 6.7.6v7.4h-3.8c-3.7 0-4.9 2.3-4.9 4.7v5.7H58l-1.4 8.7h-7v21A30 30 0 0 0 75 45.3Z"/><g fill-rule="nonzero"><path fill="url(#a)" d="M35 0C15.3 0 0 14.4 0 34c0 10.2 4.2 19 11 25 .6.6 1 1.3 1 2l.1 6.3c0 2 2.1 3.3 4 2.5l6.9-3.1c.6-.3 1.2-.3 1.9-.1 3.2.8 6.6 1.3 10.1 1.3 19.7 0 35-14.4 35-34C70 14.4 54.7 0 35 0Z" transform="translate(10 640)"/><path fill="#FFF" d="m24.2 683.7 10.3-16.5a5.3 5.3 0 0 1 7.6-1.4l8.2 6.2c.8.5 1.8.5 2.6 0l11.1-8.5c1.5-1.1 3.4.6 2.4 2.2l-10.3 16.5a5.3 5.3 0 0 1-7.6 1.4l-8.3-6.2c-.7-.5-1.8-.5-2.5 0L26.6 686c-1.5 1.2-3.4-.6-2.4-2.2Z"/></g></g></svg>